<svg width="35" height="35" viewBox="0 0 35 35" fill="none" xmlns="http://www.w3.org/2000/svg">
<path d="M12.5733 16.2801C15.9564 16.2801 18.7001 13.5364 18.7001 10.1533C18.7001 9.17401 18.4694 8.08543 18.0607 7.26394C18.5746 6.47887 19.3031 5.84352 20.165 5.45099C20.6749 6.59218 20.9582 8.02068 20.9582 9.34802C20.9582 10.8858 20.5818 12.3345 19.9101 13.6093C18.3764 16.5391 15.3049 18.5423 11.768 18.5423C10.4366 18.5423 9.16996 18.259 8.02878 17.7491C8.42131 16.8871 9.05665 16.1587 9.84173 15.6448C10.6632 16.0535 11.5859 16.2842 12.5652 16.2842L12.5733 16.2801ZM34.8183 34.8183H23.0504C21.3467 34.8183 19.7523 34.353 18.3844 33.5477C19.3192 32.7666 20.1124 31.8237 20.7235 30.7594C21.2091 30.8849 21.719 30.9496 22.2491 30.9496H29.2581H30.9537V3.86871H22.2451C18.862 3.86871 16.1183 6.61241 16.1183 9.9955C16.1183 10.9748 16.3489 11.9015 16.7576 12.7271C16.3853 13.3017 15.8957 13.7914 15.3251 14.1677C14.3984 12.7352 13.8602 11.0234 13.8602 9.1902C13.8642 4.11556 17.9757 0 23.0504 0H34.8183V34.8183ZM22.2086 18.5382C18.8255 18.5382 16.0818 21.2819 16.0818 24.665C16.0818 25.6443 16.3125 26.7329 16.7212 27.5544C16.2073 28.3395 15.4789 28.9748 14.6169 29.3674C14.107 28.2262 13.8237 26.8017 13.8237 25.4703C13.8237 23.9326 14.2041 22.4838 14.8678 21.2091C16.4015 18.2792 19.473 16.2761 23.0099 16.2761C24.3413 16.2761 25.6079 16.5594 26.7491 17.0692C26.3525 17.9312 25.7212 18.6596 24.9362 19.1736C24.1147 18.7648 23.192 18.5342 22.2127 18.5342L22.2086 18.5382ZM18.7001 24.8228C18.7001 23.8435 18.4694 22.9168 18.0607 22.0913C18.433 21.5166 18.9227 21.027 19.4933 20.6506C20.42 22.0832 20.9582 23.795 20.9582 25.6281C20.9582 30.7028 16.8426 34.8183 11.768 34.8183H0V0H11.768C13.4717 0 15.0661 0.465378 16.4339 1.27068C15.4991 2.05171 14.7059 2.9946 14.0949 4.0589C13.6093 3.93345 13.0994 3.86871 12.5692 3.86871H3.86871V30.9496H12.5733C15.9564 30.9496 18.7001 28.2059 18.7001 24.8228Z" fill="#00A3C9"/>
</svg>
