<svg width="28" height="28" viewBox="0 0 28 28" fill="none" xmlns="http://www.w3.org/2000/svg">
<path d="M28 28L22.2093 22.2093M22.2093 22.2093C23.1999 21.2188 23.9856 20.0429 24.5216 18.7487C25.0577 17.4546 25.3336 16.0675 25.3336 14.6667C25.3336 13.2659 25.0577 11.8788 24.5216 10.5846C23.9856 9.29043 23.1999 8.11452 22.2093 7.124C21.2188 6.13348 20.0429 5.34776 18.7487 4.8117C17.4546 4.27563 16.0675 3.99973 14.6667 3.99973C13.2659 3.99973 11.8788 4.27563 10.5846 4.8117C9.29043 5.34776 8.11452 6.13348 7.124 7.124C5.12356 9.12444 3.99973 11.8376 3.99973 14.6667C3.99973 17.4957 5.12356 20.2089 7.124 22.2093C9.12444 24.2098 11.8376 25.3336 14.6667 25.3336C17.4957 25.3336 20.2089 24.2098 22.2093 22.2093Z" stroke="black" stroke-opacity="0.5" stroke-width="2.8" stroke-linecap="round" stroke-linejoin="round"/>
</svg>
